<?xml version="1.0" standalone="no"?>
<!DOCTYPE svg PUBLIC "-//W3C//DTD SVG 20010904//EN"
 "http://www.w3.org/TR/2001/REC-SVG-20010904/DTD/svg10.dtd">
<svg version="1.0" xmlns="http://www.w3.org/2000/svg"
 width="1032.000000pt" height="1032.000000pt" viewBox="0 0 1032.000000 1032.000000"
 preserveAspectRatio="xMidYMid meet">
<metadata>
Created by potrace 1.11, written by Peter Selinger 2001-2013
</metadata>
<g transform="translate(0.000000,1032.000000) scale(0.100000,-0.100000)"
fill="#000000" stroke="none">
<path d="M723 7936 c-5 -8 -8 -559 -3 -581 1 -5 1 -12 0 -15 -7 -19 -3 -130 5
-130 7 0 7 -3 0 -8 -10 -7 -15 -172 -5 -172 3 0 4 -24 2 -52 -5 -112 -5 -156
2 -166 3 -6 2 -13 -3 -17 -6 -3 -7 -16 -3 -28 4 -12 6 -33 5 -47 -6 -64 -7
-170 -2 -170 3 0 2 -24 -1 -54 -3 -30 -3 -64 2 -75 4 -11 3 -23 -2 -26 -5 -3
-6 -16 -1 -28 4 -12 4 -35 1 -52 -3 -16 -3 -40 1 -52 5 -12 4 -25 -1 -28 -5
-3 -6 -16 -1 -28 4 -12 4 -35 1 -52 -3 -16 -3 -40 1 -52 5 -12 4 -25 -1 -28
-5 -3 -6 -16 -1 -28 4 -12 4 -35 1 -52 -3 -16 -3 -40 1 -52 5 -12 4 -25 -1
-28 -5 -3 -6 -16 -2 -28 4 -12 6 -35 5 -52 -6 -68 -5 -133 1 -143 3 -6 2 -13
-3 -17 -6 -3 -7 -16 -3 -28 4 -12 6 -33 5 -47 -5 -61 -8 -170 -3 -170 3 0 4
-24 2 -52 -5 -112 -5 -156 2 -166 3 -6 2 -13 -3 -17 -6 -3 -7 -15 -3 -28 7
-19 8 -64 2 -92 -1 -5 -2 -22 -1 -38 l1 -27 282 2 281 3 0 36 c0 19 -2 40 -5
45 -3 5 -2 18 2 29 4 11 4 30 -1 41 -4 12 -5 25 -2 28 8 8 9 76 1 76 -4 0 -3
12 1 28 4 15 4 39 0 55 -4 15 -4 27 -1 27 4 0 7 29 7 65 0 36 -3 65 -7 65 -4
0 -3 12 1 28 4 15 4 39 0 55 -4 15 -4 27 -1 27 4 0 7 29 7 65 0 36 -3 65 -7
65 -4 0 -3 12 1 28 4 15 4 39 0 55 -4 15 -4 27 -1 27 4 0 7 29 7 65 0 36 -3
65 -7 65 -4 0 -3 12 1 28 4 15 4 39 0 55 -4 15 -4 27 -1 27 4 0 7 29 7 65 0
36 -3 65 -7 65 -4 0 -3 12 1 28 4 15 4 39 0 55 -4 15 -4 27 -1 27 8 0 6 105
-2 126 -3 7 -1 26 3 42 5 16 5 35 1 42 -5 7 -5 23 0 34 4 12 4 30 0 42 -5 11
-5 27 0 34 4 7 4 26 0 41 -5 16 -6 29 -2 29 4 0 7 16 7 35 0 19 -3 35 -7 35
-4 0 -3 13 2 29 4 15 4 34 0 41 -5 7 -5 23 0 34 4 12 4 30 0 42 -5 11 -5 27 0
34 4 7 4 26 0 41 -5 16 -6 29 -2 29 4 0 7 16 7 35 0 19 -3 35 -7 35 -4 0 -3
13 2 29 4 15 4 34 0 41 -5 7 -5 23 0 34 4 12 4 30 0 41 -4 11 -5 24 -2 30 3 5
5 26 3 47 l-2 38 1186 0 1185 0 0 280 0 280 -1237 1 c-681 0 -1339 1 -1461 2
-123 1 -226 -2 -229 -7z"/>
<path d="M3452 6299 c-40 -10 -78 -22 -85 -26 -7 -4 -17 -8 -22 -9 -28 -4
-136 -84 -191 -141 -74 -75 -145 -207 -164 -303 -20 -95 -22 -1188 -3 -1280
19 -93 41 -146 89 -220 119 -183 289 -286 489 -294 133 -5 252 23 337 79 21
14 40 25 43 25 15 0 106 89 150 145 50 67 89 147 110 230 15 59 18 118 20 388
0 174 -2 318 -5 318 -23 5 -604 3 -612 -2 -12 -7 -16 -358 -5 -376 4 -6 50 -9
112 -9 59 1 110 -1 115 -4 5 -3 7 -57 6 -120 -2 -98 -6 -121 -26 -155 -52 -91
-127 -136 -219 -130 -73 4 -98 15 -147 63 -83 82 -79 43 -79 697 0 648 -5 601
72 686 61 68 145 91 228 64 49 -17 125 -78 125 -101 0 -6 6 -17 14 -23 19 -16
29 -70 31 -173 2 -47 5 -90 9 -96 3 -5 82 -9 193 -8 l188 1 0 125 c1 78 -4
138 -12 158 -7 18 -12 36 -11 40 9 44 -90 219 -167 297 -58 59 -193 133 -280
155 -83 20 -221 20 -303 -1z"/>
<path d="M4270 6282 c-5 -2 -5 -14 1 -30 6 -15 11 -29 11 -32 0 -3 2 -9 4 -15
27 -76 237 -714 239 -726 2 -8 10 -32 19 -52 8 -21 15 -39 16 -42 1 -7 3 -12
70 -217 l61 -186 -1 -460 c0 -363 2 -461 12 -464 11 -3 341 -3 372 1 4 1 6 28
4 61 -2 33 0 60 5 60 4 0 6 4 3 9 -3 5 -6 35 -6 67 0 33 0 66 0 74 0 8 0 161
-1 340 l-1 325 76 225 c78 229 128 377 132 395 3 11 82 241 91 265 8 20 8 21
18 55 4 17 10 35 14 40 3 6 6 16 7 23 2 8 6 21 10 30 4 9 8 23 10 31 1 7 11
36 22 65 28 71 51 149 47 156 -2 4 -325 5 -371 1 -6 -1 -16 -22 -22 -48 -10
-45 -26 -103 -147 -533 -26 -91 -54 -191 -62 -223 -16 -58 -22 -64 -28 -30 -2
10 -4 18 -5 18 -1 0 -3 7 -5 15 -2 8 -18 65 -35 125 -17 61 -33 121 -36 135
-3 14 -12 50 -22 80 -9 30 -17 58 -18 63 -1 4 -3 10 -4 15 -1 4 -2 10 -1 14 0
4 -6 23 -14 42 -9 20 -15 37 -14 38 2 6 -13 65 -36 143 -13 44 -26 93 -29 109
-3 16 -8 31 -11 34 -6 6 -358 9 -375 4z"/>
<path d="M5694 6275 c-2 -5 -5 -506 -7 -1112 -2 -988 -1 -1103 13 -1104 59 -5
354 -3 362 2 7 5 11 271 12 818 0 446 4 810 8 809 4 -2 40 -51 80 -111 199
-294 243 -355 249 -352 3 3 32 42 63 87 31 46 83 121 116 168 33 47 64 95 69
106 6 12 14 23 18 25 5 2 19 21 32 42 12 20 26 37 29 37 4 0 7 -359 7 -798 0
-438 1 -806 3 -817 3 -19 11 -20 185 -20 100 0 187 3 192 7 6 4 9 169 8 470
-1 254 -3 752 -3 1106 l-1 642 -22 1 c-12 1 -107 1 -211 2 -163 0 -190 -2
-198 -16 -4 -9 -15 -23 -23 -31 -8 -8 -15 -17 -15 -20 0 -5 -209 -308 -238
-344 l-18 -23 -34 53 c-50 76 -193 282 -200 288 -4 3 -14 19 -23 36 -29 57
-31 58 -249 58 -125 1 -202 -3 -204 -9z"/>
<path d="M9189 5286 c0 -11 -1 -532 -1 -1158 l-1 -1136 -1320 0 c-725 -1
-1321 -3 -1324 -6 -3 -3 -6 -129 -7 -280 l-1 -275 1345 -1 c1399 -1 1797 -1
1842 -1 l26 1 -1 1438 -2 1437 -277 1 c-278 2 -278 2 -279 -20z"/>
</g>
</svg>
